PathFileType	4	(X/Y/Z)	c:/Users/goper/Files/vsCode/490R/osim_files/A06/A06_Slow_03.trc
DataRate	CameraRate	NumFrames	NumMarkers	Units                	OrigDataRate	OrigDataStartFrame	OrigNumFrames
120.00	120.00	4	36	mm	120.0	457	1216
                Frame#	Time	LPSIS			LASIS			LTH1			LTH2			LTH3			LTH4			LLFE			LMFE			LSH1			LSH2			LSH3			LSH4			LLMAL			LMMAL			LCAL			LMTP5			LTOE			LMTP1			RPSIS			RASIS			RTH1			RTH2			RTH3			RTH4			RLFE			RMFE			RSH1			RSH2			RSH3			RSH4			RLMAL			RMMAL			RCAL			RMTP1			RTOE			RMTP5		
		X1	Y1	Z1	X2	Y2	Z2	X3	Y3	Z3	X4	Y4	Z4	X5	Y5	Z5	X6	Y6	Z6	X7	Y7	Z7	X8	Y8	Z8	X9	Y9	Z9	X10	Y10	Z10	X11	Y11	Z11	X12	Y12	Z12	X13	Y13	Z13	X14	Y14	Z14	X15	Y15	Z15	X16	Y16	Z16	X17	Y17	Z17	X18	Y18	Z18	X19	Y19	Z19	X20	Y20	Z20	X21	Y21	Z21	X22	Y22	Z22	X23	Y23	Z23	X24	Y24	Z24	X25	Y25	Z25	X26	Y26	Z26	X27	Y27	Z27	X28	Y28	Z28	X29	Y29	Z29	X30	Y30	Z30	X31	Y31	Z31	X32	Y32	Z32	X33	Y33	Z33	X34	Y34	Z34	X35	Y35	Z35	X36	Y36	Z36

457	3.80000	1360.41309	999.79889	359.34991	1170.63708	937.62738	417.91092	1192.29395	585.26593	454.60443	1175.50537	547.04132	448.13510	1135.82605	598.97150	441.82965	1126.39270	559.11218	436.02725	1137.75830	479.96844	431.11102	1142.88757	476.54623	324.30096	1194.14600	384.95224	449.42755	1184.32056	337.62131	452.75348	1131.95544	386.90750	437.44720	1131.85168	343.83203	439.62860	1183.70874	89.79101	407.39728	1167.08691	102.53841	323.25079	1249.99658	83.09518	357.34927	1067.75024	44.38651	424.68417	1028.74072	66.97645	368.04309	1053.54443	58.27124	329.35553	1366.09778	1014.17749	229.18326	1195.40234	983.21576	164.60797	1236.44006	587.73010	135.52780	1239.53674	542.48065	133.18301	1298.80872	587.79779	126.27274	1293.59375	545.01495	126.69838	1272.98804	432.55722	152.70012	1273.86609	431.91815	242.66040	1412.67786	359.41876	161.90453	1450.97437	330.84698	162.76944	1379.20764	307.29333	175.10075	1425.11926	289.66519	165.10194	1565.29578	253.16872	149.08363	1555.55029	242.79768	233.79346	1616.78601	285.15405	197.14537	1512.43677	108.30633	228.54117	1498.45862	102.55271	188.28340	1523.31909	120.83246	137.00461
458	3.80833	1352.39209	1001.45050	360.49207	1160.24658	939.67365	418.10495	1189.43628	587.65942	454.87979	1172.45752	547.07385	448.57339	0.00000	0.00000	0.00000	1122.94666	558.67566	436.62943	1135.56299	480.17523	431.58359	1143.23901	474.77106	325.52194	1192.09106	385.26517	449.24863	1183.00537	338.42896	452.19873	1129.55334	386.54993	437.40677	1130.49939	343.63367	439.80392	1183.49329	89.96706	407.24274	1166.87109	102.59702	323.11627	1249.29919	82.95072	357.37509	1067.64490	44.34083	424.74142	1028.01416	66.04100	368.50787	1053.51196	58.26160	329.26407	1358.27844	1016.35876	230.42151	1187.82178	984.62354	165.11436	1221.41785	591.09064	136.47797	1223.27283	545.75342	134.22864	1283.63123	589.45032	126.84169	1277.31152	546.85651	127.42532	1253.71216	435.25595	153.73695	1254.52942	434.58307	243.95529	1393.06396	361.19287	162.56133	1431.11304	332.30090	163.27531	1359.37427	309.32474	176.09233	1405.03833	291.29010	166.07623	1544.88232	253.77974	149.15373	1535.53052	243.79224	233.88741	1596.85791	285.69067	196.78659	1491.91602	110.15543	229.55406	0.00000	0.00000	0.00000	1500.76562	120.51912	138.01117
459	3.81667	1344.41772	1002.54950	361.31549	1152.58752	940.44122	418.58289	1185.27905	587.98944	454.79440	1169.45837	547.21564	448.73721	0.00000	0.00000	0.00000	1119.04724	558.08820	437.31757	1133.36023	479.63934	431.44217	1139.51965	474.55804	325.80701	1189.96118	385.42468	449.40350	1185.69556	341.65662	453.86459	1127.56531	386.95444	437.53253	1128.71106	343.53674	439.77997	1183.50366	90.01332	407.22574	1166.70679	102.63200	322.96381	1249.22363	83.16665	357.24985	1067.40344	44.43836	424.68915	1027.95557	65.92487	368.44547	1053.45667	58.20791	329.17621	1350.48071	1018.47058	231.55457	1179.72192	987.47150	165.57274	1206.78796	594.69165	137.17752	1207.08838	548.70966	135.46284	1268.75403	591.23529	127.40113	1261.31445	548.82263	128.14864	1235.08728	438.01627	154.80925	1236.81226	437.63779	245.17996	1373.53113	362.46915	163.26450	1411.26428	333.21555	163.87494	1338.13342	308.71707	177.38181	1384.87146	292.57507	166.93492	1524.11377	253.50171	149.27136	1515.11890	243.77356	234.09467	1576.65063	284.93713	196.53757	1470.24109	110.68196	230.48027	1451.21753	105.23152	190.75743	1478.44775	120.44888	138.69035
460	3.82500	1336.51318	1003.91608	362.21387	1144.33020	941.78912	418.81512	1181.27637	586.87988	454.61285	1166.35901	547.25916	448.81738	1122.18701	597.05157	441.96808	1116.24951	556.38593	437.47522	1131.15234	478.96375	431.46213	1136.46362	474.41727	325.82855	1187.87976	385.64178	449.20636	1183.89185	341.71286	453.81918	1124.52258	385.81055	437.64035	1126.40991	343.06055	439.84009	1183.51697	90.45721	406.99484	1166.64111	102.69458	322.73251	1249.09314	83.25996	357.15784	1067.54517	44.32122	424.82425	1027.97583	65.65318	368.48935	1053.37109	58.01560	329.20126	1343.16370	1020.59521	232.51553	1172.49048	988.52478	166.45139	0.00000	0.00000	0.00000	1193.61914	554.18433	134.13863	1254.07556	593.06500	127.97535	1245.60596	550.93695	128.84674	1216.80225	440.90714	156.02814	1220.60327	442.41138	246.20760	1354.10974	363.32840	163.93091	1391.50574	333.58197	164.40396	1319.29224	312.33777	178.18654	1364.61145	293.49579	167.74754	1502.99390	252.19566	149.42960	1494.38208	242.84216	234.35385	1556.22913	282.98785	196.38980	1447.19226	110.67200	231.34889	1428.19885	103.94692	192.34221	1457.21826	121.53560	139.10454
